<svg xmlns="http://www.w3.org/2000/svg" viewBox="0 0 2150.002 612.169"><defs><style>.a{fill:#dfe3b1}.b{fill:#e9edb9}.c,.d,.g,.h{fill:none}.c,.d{stroke:#f8f8ec;stroke-width:36px}.d{stroke:#f4f4d1}.e{fill:#083283}.f{fill:#279237}.g,.h{stroke:#083283;stroke-miterlimit:10;stroke-width:3px}.h{stroke-linecap:round;stroke-linejoin:round}</style></defs><path class="a" d="M150.34 576.196s102.05-219.888 511.357-233.627c312.634-10.924 455.469-37.551 624.213-69.729 200.062-38.15 346.919-206.693 510.7-142.6 75.666 29.611 115.9 158.27 151.089 250.458 40.732 106.712 238.125 117.329 196.6 174.6s-333.067 38.625-333.067 38.625L0 609.797z"/><path class="b" d="M0 603.601s18.958-103.106 368.713-116.846c267.147-10.924 287.38-147.635 431.573-179.813 170.954-38.15 816.561 28.826 979.742 125.854 70 41.625 193.315 162.516 193.315 162.516s-182.588 13.557-450.963 14.485c-470.008 1.617-1522.38 0-1522.38 0z"/><path class="c" d="M872.884 505.671h-66.009s-187.557-8.93-190.839 105.985M1541.642 361.2c-10.476 31.633-148.307 42.836-195.43 42.078-123.553-1.988-157.521 62.834-158.462 101.228-1.3 52.884 0 103.193 0 103.193"/><path class="c" d="M738.853 331.714c73.03 218.228 186.36 177.719 226.646 179.369s234.448 0 234.448 0"/><path class="d" d="M1856.55 180.888l-47.341 35.645c-32.6 25.706-19.908 14-87.209 65.185s-143.753 48.375-153.913 88.109"/><path class="e" d="M1555.08 287.643a20.122 20.122 0 0 0-31.172-16.82 62.767 62.767 0 0 0-3.336-10.489c-3.657-8.598-8.446-13.334-13.485-13.334s-9.834 4.716-13.484 13.28a61.766 61.766 0 0 0-3.194 9.872l-5.052-18.527a1.548 1.548 0 0 0-2.987 0l-13.935 51.094a1.548 1.548 0 0 0 1.494 1.955h12.386v12.386a1.55 1.55 0 1 0 3.1 0v-12.386h12.383a1.544 1.544 0 0 0 1.539-1.694 18.46 18.46 0 0 0 6.2 1.629v12.451a1.55 1.55 0 1 0 3.1 0v-12.451a18.526 18.526 0 0 0 10.571-4.436 20.124 20.124 0 0 0 14.2 7.536v9.352a1.55 1.55 0 1 0 3.1 0v-9.349a20.155 20.155 0 0 0 18.572-20.069zm-59.309 13.934h-10.36v-2.455l2.74-2.74a1.549 1.549 0 1 0-2.19-2.19l-.55.55v-10.2a1.55 1.55 0 0 0-3.1 0v7.1l-2-2a1.549 1.549 0 0 0-2.19 2.19l4.191 4.191v5.552h-10.357l11.908-43.659 5.246 19.234a66.771 66.771 0 0 0-.625 8.92 18.579 18.579 0 0 0 7.026 14.551zm12.865-2.455l5.744-5.74a1.549 1.549 0 0 0-2.19-2.19l-3.55 3.55v-6.458l4.191-4.191a1.549 1.549 0 0 0-2.19-2.19l-2 2v-4a1.55 1.55 0 0 0-3.1 0v11.743l-3.55-3.55a1.549 1.549 0 1 0-2.19 2.19l5.74 5.74v5.474a15.529 15.529 0 0 1-13.961-15.43 65.935 65.935 0 0 1 4.871-24.576c3.088-7.243 6.965-11.4 10.636-11.4s7.541 4.173 10.635 11.449a65.936 65.936 0 0 1 4.873 24.527 15.529 15.529 0 0 1-13.959 15.43zm27.869 5.478v-2.381l5.74-5.74a1.549 1.549 0 0 0-2.19-2.19l-3.55 3.55v-10.2a1.55 1.55 0 0 0-3.1 0v7.1l-3.55-3.55a1.549 1.549 0 1 0-2.19 2.19l5.74 5.74v5.481a17.032 17.032 0 0 1-12.012-6.657 18.519 18.519 0 0 0 4.298-11.873 68.235 68.235 0 0 0-1.111-11.933 17.03 17.03 0 1 1 11.925 30.463zM825.38 514.469a22.511 22.511 0 0 0-34.879-18.817 70.219 70.219 0 0 0-3.731-11.735C782.68 474.3 777.321 469 771.68 469s-11 5.276-15.085 14.856a69.1 69.1 0 0 0-3.57 11.044l-5.652-20.726a1.732 1.732 0 0 0-3.342 0l-15.59 57.161a1.732 1.732 0 0 0 1.671 2.188h13.857v13.857a1.732 1.732 0 1 0 3.464 0v-13.858h13.858a1.728 1.728 0 0 0 1.722-1.895 20.652 20.652 0 0 0 6.939 1.822v13.93a1.732 1.732 0 1 0 3.464 0V533.45a20.725 20.725 0 0 0 11.826-4.963 22.513 22.513 0 0 0 15.888 8.43v10.462a1.732 1.732 0 1 0 3.464 0v-10.458a22.548 22.548 0 0 0 20.786-22.452zm-66.357 15.589h-11.589v-2.747l3.065-3.065a1.732 1.732 0 0 0-2.45-2.45l-.616.615V511a1.732 1.732 0 0 0-3.464 0v7.943l-2.239-2.235a1.732 1.732 0 1 0-2.45 2.45l4.689 4.689v6.211H732.38l13.321-48.846 5.869 21.519a74.7 74.7 0 0 0-.7 9.979 20.785 20.785 0 0 0 7.86 16.279zm14.393-2.747l6.421-6.421a1.732 1.732 0 0 0-2.45-2.45l-3.972 3.971v-7.225l4.69-4.686a1.732 1.732 0 0 0-2.45-2.45l-2.239 2.239v-4.481a1.732 1.732 0 1 0-3.464 0v13.139l-3.972-3.971a1.732 1.732 0 0 0-2.45 2.45l6.421 6.421v6.124a17.373 17.373 0 0 1-15.616-17.262 73.764 73.764 0 0 1 5.445-27.494c3.455-8.1 7.792-12.751 11.9-12.751s8.436 4.669 11.9 12.809a73.765 73.765 0 0 1 5.45 27.436 17.372 17.372 0 0 1-15.614 17.262zm31.179 6.132v-2.667l6.421-6.421a1.732 1.732 0 1 0-2.45-2.45l-3.972 3.971v-11.407a1.732 1.732 0 0 0-3.464 0v7.943l-3.972-3.972a1.732 1.732 0 1 0-2.45 2.45l6.421 6.421v6.132A19.055 19.055 0 0 1 787.692 526a20.718 20.718 0 0 0 4.8-13.286 76.337 76.337 0 0 0-1.239-13.35 19.052 19.052 0 1 1 13.337 34.083zM619.927 501.77h-12.09V485.4a9.5 9.5 0 0 0 7.977-9.177 62.9 62.9 0 0 0-2.407-13.276c-2.133-7.524-4.5-11.029-7.439-11.029s-5.306 3.5-7.439 11.029a62.9 62.9 0 0 0-2.407 13.276 9.5 9.5 0 0 0 7.977 9.177v16.37H591.88v-46.425a5.867 5.867 0 0 0 3.988-5.55v-7.977a1.869 1.869 0 0 0-1.87-1.87h-2.118V437.7h4.113a1.87 1.87 0 1 0 0-3.739h-11.962a1.87 1.87 0 1 0 0 3.739h4.113v2.244h-2.119a1.869 1.869 0 0 0-1.87 1.87v7.977a5.867 5.867 0 0 0 3.988 5.55v46.429h-6.536l-1.27-6.232h1.7a1.87 1.87 0 1 0 0-3.739h-4.114v-4.238h2.119a1.87 1.87 0 0 0 0-3.739h-2.119v-2.244h2.119a1.87 1.87 0 1 0 0-3.739h-35.9a1.87 1.87 0 0 0 0 3.739h2.119v2.244h-2.115a1.87 1.87 0 0 0 0 3.739h2.119v4.239h-4.113a1.87 1.87 0 1 0 0 3.739h1.7l-1.272 6.231h-14.513v-18.312a15.85 15.85 0 0 0 13.96-15.715c0-14.045-13.556-43.417-14.133-44.66a1.87 1.87 0 0 0-3.392 0c-.577 1.243-14.134 30.617-14.134 44.66a15.85 15.85 0 0 0 13.96 15.715v18.312H508.25a1.87 1.87 0 1 0 0 3.739h111.677a1.87 1.87 0 1 0 0-3.739zm-20.067-25.552a59.2 59.2 0 0 1 2.107-11.687c2-7.317 3.68-8.66 4-8.856.32.2 2 1.539 4 8.856a59.181 59.181 0 0 1 2.107 11.687 5.69 5.69 0 0 1-4.238 5.339v-3.843a1.87 1.87 0 1 0-3.739 0v3.843a5.69 5.69 0 0 1-4.237-5.339zm-11.965-32.531h4.238v6.107a2.119 2.119 0 0 1-4.238 0zm-73.787 24.056c0-10.377 8.405-30.819 12.09-39.281 3.685 8.462 12.09 28.9 12.09 39.281a12.109 12.109 0 0 1-10.22 11.945v-11.17l5.435-5.435a1.87 1.87 0 0 0-2.644-2.644l-2.791 2.791v-3.463a1.87 1.87 0 1 0-3.739 0v9.446l-2.791-2.791a1.87 1.87 0 1 0-2.644 2.644l5.435 5.435v5.188a12.109 12.109 0 0 1-10.221-11.946zm35.9 13.835h24.172v2.244h-24.176zm0 5.983h24.172v4.239h-24.176zm-2.337 7.977h28.85l1.27 6.232h-31.394z"/><path class="f" d="M1153.019 472.047a27.214 27.214 0 0 0-31.529-12.548l-14.773-34.452h10.538a3.026 3.026 0 0 0 0-6.051h-15.128a3.025 3.025 0 0 0-2.78 4.218l6.239 14.555-37.773 10.796-6.051-11.412h7.086a3.026 3.026 0 0 0 0-6.051h-21.178a3.026 3.026 0 1 0 0 6.051h7.261l7.6 14.371-9.161 11.194a27.214 27.214 0 1 0 12.274 25.864h18.334a3.074 3.074 0 0 0 .6-.06 2.94 2.94 0 0 0 .517-.154 3.024 3.024 0 0 0 1.513-1.307l.051-.091 22.188-41.6 7.085 16.534a27.187 27.187 0 1 0 37.087 10.143zm-114.426 34.69a21.178 21.178 0 1 1 10.912-39.29l-13.254 16.2a3.026 3.026 0 0 0 2.342 4.941h20.935a21.192 21.192 0 0 1-20.935 18.149zm6.383-24.2l9.209-11.255a21.082 21.082 0 0 1 5.343 11.255zm20.667 0a27.139 27.139 0 0 0-7.591-15.99l7.564-9.227 13.345 25.211zm18.335-3.425l-13.282-25.081 31.449-8.984zm51.13 26.87a21.181 21.181 0 0 1-16.773-38.469l8.243 19.234a3.025 3.025 0 0 0 5.561-2.384l-8.247-19.23a21.178 21.178 0 1 1 11.215 40.844z"/><path class="e" d="M1485.984 18.397a14.374 14.374 0 0 0-10.1-4.222 14.062 14.062 0 0 0-10.1 4.222 14.325 14.325 0 0 0 10.1 24.429 14.062 14.062 0 0 0 10.1-4.222 14.374 14.374 0 0 0 4.222-10.1 14.062 14.062 0 0 0-4.222-10.107zm-2.715 17.492a10.559 10.559 0 1 1 3.016-7.389 10.429 10.429 0 0 1-3.016 7.389zM1502.42 26.54h-5.806a1.96 1.96 0 0 0 0 3.921h5.806a1.96 1.96 0 1 0 0-3.921zM1475.88 47.274a2 2 0 0 0-1.96 1.96v5.806a1.96 1.96 0 1 0 3.921 0v-5.806a2 2 0 0 0-1.961-1.96zM1496.011 45.916l-4.147-4.147a1.92 1.92 0 0 0-2.714 2.714l4.147 4.147a1.92 1.92 0 0 0 2.714-2.714zM1475.88 0a2 2 0 0 0-1.96 1.96v5.806a1.96 1.96 0 0 0 3.921 0V1.96A2 2 0 0 0 1475.88 0zM1496.087 8.369a1.911 1.911 0 0 0-2.714 0l-4.147 4.147a1.92 1.92 0 1 0 2.714 2.714l4.147-4.147a1.911 1.911 0 0 0 0-2.714zM1455.146 26.54h-5.806a2 2 0 0 0-1.96 1.96 1.947 1.947 0 0 0 1.96 1.96h5.806a1.96 1.96 0 0 0 0-3.921zM1462.535 41.769a1.911 1.911 0 0 0-2.714 0l-4.147 4.147a1.92 1.92 0 0 0 2.714 2.714l4.147-4.147a1.911 1.911 0 0 0 0-2.714zM1462.535 12.516l-4.147-4.147a1.92 1.92 0 0 0-2.714 2.714l4.147 4.147a1.92 1.92 0 1 0 2.714-2.714zM1654.05 147.009C1649.015 135.4 1642.67 129 1636.18 129s-12.831 6.4-17.866 18.009c-4.279 9.87-6.937 22.017-6.937 31.7a24.769 24.769 0 0 0 21.052 24.52l-1.039 18.758h-1.848a1.557 1.557 0 1 0 0 3.113h13.284a1.557 1.557 0 1 0 0-3.113h-1.846l-1.042-18.755a24.809 24.809 0 0 0 21.052-24.521c-.003-9.685-2.661-21.832-6.94-31.702zm-19.542 74.978l1.672-30.1h.007l1.672 30.1zm17.763-28.728a21.643 21.643 0 0 1-12.51 6.843l-.587-10.558 8.072-8.072a1.557 1.557 0 0 0-2.2-2.2l-6.1 6.1-.38-6.84 3.7-3.7a1.557 1.557 0 0 0-2.2-2.2l-1.733 1.733-.593-10.681a1.557 1.557 0 0 0-3.108 0l-.943 16.974-6.365-6.365a1.557 1.557 0 1 0-2.2 2.2l8.335 8.335-.849 15.282a21.66 21.66 0 0 1-18.112-21.4c0-9.145 2.622-21.1 6.68-30.463 4.441-10.253 9.912-16.134 15.002-16.134s10.564 5.881 15.01 16.134c4.058 9.361 6.68 21.318 6.68 30.463a21.641 21.641 0 0 1-5.599 14.549z"/><g><path class="g" d="M1170.652 343.307l.4-175.612h125.394v175.612M1043.24 344.076V211.101h2.022v-11.376h2.73v-4.749h-41.762"/><path class="g" d="M1170.652 176.862H908.751v18l-6.371.113v4.639h3.741v10.048l2.022 1.436v55.116h-1.718v2.872h1.618l.1 53.567h-1.718l.1 21.427M1141.428 203.701h4.55s1.719-.11 1.719 1.988a1.78 1.78 0 0 1-1.719 1.988h-4.55a1.768 1.768 0 0 1-1.517-1.988c0-1.988 1.517-1.988 1.517-1.988zM1159.933 343.528v-47.272s.4-16.346-17.595-16.346-16.786 15.9-16.786 15.9v47.934c0-.106 34.988-.216 34.381-.216z"/><path class="g" d="M972.153 344.076V211.101h-2.023v-11.376h-2.73v-4.749h41.864M972.153 211.101h198.398M969.423 199.725h411.054M1047.993 194.976h329.652M1094.104 203.701h4.55s1.719-.11 1.719 1.988a1.78 1.78 0 0 1-1.719 1.988h-4.55a1.768 1.768 0 0 1-1.517-1.988c-.1-1.988 1.517-1.988 1.517-1.988zM1065.386 203.701h4.55s1.719-.11 1.719 1.988a1.78 1.78 0 0 1-1.719 1.988h-4.55a1.768 1.768 0 0 1-1.517-1.988c0-1.988 1.517-1.988 1.517-1.988zM1132.429 255.059v-30.152h21.943v31.257h-21.943zM953.446 203.259h4.55s1.719-.11 1.719 1.988a1.78 1.78 0 0 1-1.719 1.988h-4.55a1.768 1.768 0 0 1-1.517-1.988c0-1.988 1.517-1.988 1.517-1.988zM924.728 203.259h4.55s1.719-.11 1.719 1.988a1.78 1.78 0 0 1-1.719 1.988h-4.55a1.768 1.768 0 0 1-1.517-1.988c0-1.988 1.517-1.988 1.517-1.988zM907.942 266.215h470.614M907.942 269.086h470.614M906.223 343.749h474.153M1189.663 260.14v-42.191s-.708-11.376 11.022-11.376 11.123 11.487 11.123 11.487v42.08zM1223.032 260.14v-42.191s-.708-11.376 11.022-11.376 11.123 11.487 11.123 11.487v42.08zM1257.615 260.14v-42.191s-.708-11.376 11.022-11.376 11.123 11.487 11.123 11.487v42.08zM967.704 194.976h-59.358M967.4 199.614h-61.582M969.625 211.101h-61.481M1015.028 254.618v-30.263h15.168v31.367h-15.168z"/><path class="g" d="M986.714 254.618v-30.263h15.168v31.367h-15.168zM948.692 254.175v-30.152h15.169v31.257h-15.269zM920.378 254.175v-30.152h15.169v31.257h-15.269zM1088.846 254.175v-30.152h15.168v31.257h-15.168zM1060.532 254.175v-30.152h15.168v31.257h-15.168zM948.692 310.504v-30.152h15.169v31.257h-15.269zM920.378 310.504v-30.152h15.169v31.257h-15.269zM1014.725 311.277v-30.152h15.168v31.257h-15.168zM986.411 311.277v-30.152h15.168v31.257h-15.168zM1088.846 310.504v-30.152h15.168v31.257h-15.168zM1060.532 310.504v-30.152h15.168v31.257h-15.168zM1190.369 314.925v-33.8h21.741v35.122h-21.841zM1223.032 314.925v-33.8h21.842v35.122h-21.842zM1257.717 314.925v-33.8h21.842v35.122h-21.842zM1346.095 310.504v-30.152h15.168v31.257h-15.268zM1317.781 310.504v-30.152h15.168v31.257h-15.268zM1346.095 253.844v-30.152h15.168v31.257h-15.268zM1317.781 253.844v-30.152h15.168v31.257h-15.268z"/><path class="g" d="M1296.749 176.973h80.9v18h6.371v4.639h-3.64l-.1 10.051-1.931 1.549v55h1.618l.1 2.982h-1.718v53.567h1.618l-.1 21.316M1160.034 322.653h219.937M907.032 322.653h218.42M1296.749 211.101h81.604M1060.431 343.307v-10.051h15.168v9.94M1088.846 343.307v-10.051h15.168v9.94M1019.376 203.37h4.55s1.719-.11 1.719 1.988a1.78 1.78 0 0 1-1.719 1.988h-4.55a1.768 1.768 0 0 1-1.517-1.988c-.1-1.988 1.517-1.988 1.517-1.988zM990.658 203.37h4.55s1.719-.11 1.719 1.988a1.78 1.78 0 0 1-1.719 1.988h-4.55a1.768 1.768 0 0 1-1.517-1.988c0-1.988 1.517-1.988 1.517-1.988z"/><path class="g" d="M1350.444 203.48h4.55s1.719-.11 1.719 1.988a1.78 1.78 0 0 1-1.719 1.988h-4.55a1.768 1.768 0 0 1-1.517-1.988c-.1-1.988 1.517-1.988 1.517-1.988zM1321.726 203.48h4.55s1.719-.11 1.719 1.988a1.78 1.78 0 0 1-1.719 1.988h-4.55a1.768 1.768 0 0 1-1.517-1.988c0-1.988 1.517-1.988 1.517-1.988z"/><g><path class="g" d="M985.602 343.307v-10.051h15.168v9.94M1014.017 343.307v-10.051h15.168v9.94"/></g><g><path class="g" d="M919.57 343.086v-10.051l15.168-.11v10.051M948.085 343.086l-.1-10.051 15.168-.11.1 10.051"/></g><g><path class="g" d="M1317.276 343.086v-10.051l15.168-.11v10.051M1345.691 343.086v-10.051l15.168-.11v10.051"/></g><path class="g" d="M1189.966 343.418v-10.824h21.842v11.155h-21.842zM1222.728 343.418v-10.824h21.741v11.155h-21.841zM1257.413 343.418v-10.824h21.842v11.155h-21.842z"/></g><g transform="translate(1450.88 352.8)"><path class="h" d="M13.748 159.98l.107-43 5.241-2.353.107-3.53s5.134-1.391 8.557-9.253l-2.3-.107s11.5-11.98 11.5-15.564M56.428 115.427v-19.9l-4.011-5.665s9.52 1.551 15.564-20.163l66.266-.16c6.044 21.768 15.564 20.163 15.564 20.163l-4.011 5.669v64.341M56.374 95.478l89.639.053"/><path class="h" d="M71.082 116.123l.107-16.42h9.788l-.107 16.42zM125.529 116.123l.107-16.42h9.788l-.107 16.42zM71.082 144.202l.107-16.045h9.788l-.107 16.045zM88.946 144.202l.107-16.045h9.788l-.107 16.045zM125.368 144.202l.107-16.045h9.788l-.107 16.045zM107.023 144.202l.107-16.045h9.734l-.053 16.045zM107.023 112.967l.107-13.264h9.734l-.053 13.264zM52.577 89.862h97.287M60.011 122.327c.481-.107 86.162 0 86.162 0M89.267 113.074l.107-13.371h9.788l-.107 13.371z"/><path class="h" d="M119.058 122.327l-32.251-.053v-9.253l32.3.107zM34.981 109.544l.053-6.311h4.011l-.053 6.311zM24.658 132.595l.107-10.536h8.023l-.107 10.536z"/><circle class="h" cx="3.049" cy="3.049" r="3.049" transform="translate(38.243 63.013)"/><path class="h" d="M40.008 44.615h3.69v-5.349s-1.979-2.086-3.583.053zM4.549 160.301l.267-59.848-3.316.053S11.929 93.393 15.673 86.6c4.76-8.557 4.814-13.745 4.814-13.745H26l.374-13.21h-2.839s5.509-3.156 7.434-5.562a20.1 20.1 0 0 0 2.942-6.365l.107-1.391.642-.107.107-9.306s-1.284-.16-1.658-.642c-.535-.642 1.872-1.658 1.872-1.658s.16-6.044 4.707-9.734a2.793 2.793 0 0 0 .749-1.016l.7-1.658a2.4 2.4 0 0 0 .214-1.07v-4.011a1.228 1.228 0 0 1-.321-1.391 14.771 14.771 0 0 1 1.011-1.872M59.958 159.765l.053-42.84-5.241-2.353-.107-3.53s-5.134-1.391-8.557-9.253l2.3-.107s-11.5-11.981-11.5-15.564"/><path class="h" d="M37.12 79.112L17.545 98.687v16.473"/><path class="h" d="M37.013 79.272l19.361 19.254H45.356M27.707 101.789h18.452M19.15 111.042h35.299M19.096 114.625h35.406M13.855 116.925h46.156M17.545 98.687h10.536M4.816 100.398h12.729M60.011 150.46c.481-.107 86.162 0 86.162 0M4.763 159.926h141.465M67.017 72.747h-9.36l-.053-13.264h2.835s-5.509-3.156-7.434-5.562a20.1 20.1 0 0 1-2.942-6.365l-.107-1.391-.642-.053-.107-9.306s1.284-.16 1.658-.642c.535-.642-1.872-1.658-1.872-1.658s-.107-6.1-4.653-9.788a2.793 2.793 0 0 1-.753-1.018l-.7-1.658a2.394 2.394 0 0 1-.214-1.07v-4.008a1.228 1.228 0 0 0 .321-1.391 14.772 14.772 0 0 0-1.007-1.873V1.4M34.981 34.56h14.066M34.82 36.86h14.387M34.713 46.166h14.655M26.37 59.59h31.288M25.996 72.801l32.465.053M68.034 69.644l33.588-14.6 32.679 14.441M5.083 122.755h8.664M13.694 150.245H4.602M41.399 132.595l.053-10.536h8.023l-.053 10.536zM22.305 139.816h12.943v20.11H22.305zM39.58 139.762h12.943v20.11H39.58zM70.922 153.508h10.162v3.69H70.922zM125.261 153.454h10.162v3.69h-10.162z"/></g></svg>