<svg xmlns="http://www.w3.org/2000/svg" viewBox="0 0 236.414 48.773"><defs><style>.a{fill:#2b9237}.b{fill:none;stroke:#95c11f;stroke-linecap:round;stroke-miterlimit:10;stroke-width:2.803px}.c,.d{fill:#3c3c3b;font-size:28px;font-family:Anago-Medium,Anago;font-weight:500}.d{fill:#424243;font-size:17px}</style></defs><path class="a" d="M96.877 26.288a13.074 13.074 0 0 0-11.415-6.681 12.862 12.862 0 0 0-3.766.607L74.529 3.572h5.1a1.4 1.4 0 0 0 1.458-1.458A1.506 1.506 0 0 0 79.509.657h-7.288a1.4 1.4 0 0 0-1.458 1.458 1.1 1.1 0 0 0 .121.607l3.037 7.046L55.7 14.991l-2.915-5.466h3.4a1.4 1.4 0 0 0 1.459-1.458 1.4 1.4 0 0 0-1.458-1.458h-10.2a1.4 1.4 0 0 0-1.462 1.458 1.4 1.4 0 0 0 1.458 1.458h3.523l3.644 6.924-4.372 5.466a13.174 13.174 0 1 0 3.886 18.222 13.476 13.476 0 0 0 2.065-5.709h9.111c.121 0 .121 0 .243-.121a1.244 1.244 0 0 0 .729-.607l10.69-20.165 3.4 8.017a13.169 13.169 0 0 0 13.121 22.836 13.394 13.394 0 0 0 4.855-18.1zM41.609 43.057a10.204 10.204 0 0 1 0-20.408 10.4 10.4 0 0 1 5.345 1.458l-6.438 7.774a1.516 1.516 0 0 0 .243 2.065 1.379 1.379 0 0 0 .972.364h10.082a10.519 10.519 0 0 1-10.204 8.747zm3.037-11.662l4.495-5.466a9.956 9.956 0 0 1 2.551 5.466zm9.961 0a13.635 13.635 0 0 0-3.644-7.774l3.644-4.495 6.438 12.148h-6.438zm8.868-1.7l-6.439-12.153 15.185-4.373zm24.781 13a10.284 10.284 0 0 1-13-9.84 10.24 10.24 0 0 1 4.859-8.746l4.011 9.348a1.468 1.468 0 1 0 2.672-1.215l-4.009-9.355a10.271 10.271 0 0 1 5.466 19.8z"/><path class="b" d="M28.126 19.972H9.297M19.623 37.586H3.102M21.687 28.354H1.401"/><text class="c" transform="translate(111.414 39.773)"><tspan x="0" y="0">rowerowy</tspan></text><text class="d" transform="translate(112.649 16)"><tspan x="0" y="0">Powiat Średzki</tspan></text></svg>